<?xml version="1.0" encoding="utf-8"?>
<!-- Generator: Adobe Illustrator 22.1.0, SVG Export Plug-In . SVG Version: 6.00 Build 0)  -->
<svg version="1.1" id="Layer_1" xmlns="http://www.w3.org/2000/svg" xmlns:xlink="http://www.w3.org/1999/xlink" x="0px" y="0px"
	 viewBox="0 0 500 500" style="enable-background:new 0 0 500 500;" xml:space="preserve">
<style type="text/css">
	.st0{fill:#FFFFFF;}
</style>
<g>
	<g>
		<path class="st0" d="M470,56.3H92.7c-3.8,0-7,3.1-7,7v41.4H31.9c-3.8,0-7,3.1-7,7v318.7c0,3.8,3.1,7,7,7h384.2c3.8,0,7-3.1,7-7
			v-48.2h47c3.8,0,7-3.1,7-7V63.3C477,59.4,473.9,56.3,470,56.3z M38.8,423.4V118.6h370.3v256.6c0,0.1,0,0.1,0,0.2v48.1H38.8z
			 M463.1,368.2h-40V111.6c0-1.9-0.8-3.7-2.1-4.9c-1.3-1.3-3-2.1-4.9-2.1H99.6V70.2h363.5V368.2z"/>
	</g>
	<g>
		<path class="st0" d="M129.5,190.9c3.6-4.3,5.9-9.8,5.9-15.9c0-13.6-11.1-24.7-24.7-24.7c-13.6,0-24.7,11.1-24.7,24.7
			c0,6.1,2.3,11.6,5.9,15.9c-11.3,6.5-19,18.7-19,32.7c0,3.8,3.1,7,7,7c3.8,0,7-3.1,7-7c0-13.2,10.7-23.9,23.9-23.9
			c13.2,0,23.9,10.7,23.9,23.9c0,3.8,3.1,7,7,7c3.8,0,7-3.1,7-7C148.4,209.6,140.8,197.4,129.5,190.9z M99.8,175
			c0-6,4.9-10.8,10.8-10.8c6,0,10.8,4.9,10.8,10.8c0,6-4.9,10.8-10.8,10.8C104.7,185.8,99.8,181,99.8,175z"/>
	</g>
	<g>
		<path class="st0" d="M59.3,248.8h102.8c3.8,0,7-3.1,7-7V139c0-3.8-3.1-7-7-7H59.3c-3.8,0-7,3.1-7,7v102.8
			C52.3,245.6,55.4,248.8,59.3,248.8z M66.2,146h88.9v88.9H66.2V146z"/>
	</g>
	<g>
		<path class="st0" d="M388.7,132.1H203.2c-3.8,0-7,3.1-7,7s3.1,7,7,7h185.5c3.8,0,7-3.1,7-7S392.6,132.1,388.7,132.1z"/>
	</g>
	<g>
		<path class="st0" d="M388.7,166.3H203.2c-3.8,0-7,3.1-7,7c0,3.8,3.1,7,7,7h185.5c3.8,0,7-3.1,7-7
			C395.7,169.4,392.6,166.3,388.7,166.3z"/>
	</g>
	<g>
		<path class="st0" d="M388.7,200.6H203.2c-3.8,0-7,3.1-7,7c0,3.8,3.1,7,7,7h185.5c3.8,0,7-3.1,7-7
			C395.7,203.7,392.6,200.6,388.7,200.6z"/>
	</g>
	<g>
		<path class="st0" d="M388.7,234.8H203.2c-3.8,0-7,3.1-7,7c0,3.8,3.1,7,7,7h185.5c3.8,0,7-3.1,7-7
			C395.7,238,392.6,234.8,388.7,234.8z"/>
	</g>
	<g>
		<path class="st0" d="M388.7,269.1H59.3c-3.8,0-7,3.1-7,7c0,3.8,3.1,7,7,7h329.5c3.8,0,7-3.1,7-7
			C395.7,272.2,392.6,269.1,388.7,269.1z"/>
	</g>
	<g>
		<path class="st0" d="M388.7,303.4h-59.4c-3.8,0-7,3.1-7,7V403c0,3.8,3.1,7,7,7h59.4c3.8,0,7-3.1,7-7v-92.7
			C395.7,306.5,392.6,303.4,388.7,303.4z M381.8,396h-45.5v-78.8h45.5V396z"/>
	</g>
	<g>
		<path class="st0" d="M298.7,303.4h-59.4c-3.8,0-7,3.1-7,7V403c0,3.8,3.1,7,7,7h59.4c3.8,0,7-3.1,7-7v-92.7
			C305.7,306.5,302.6,303.4,298.7,303.4z M291.8,396h-45.5v-78.8h45.5V396z"/>
	</g>
	<g>
		<path class="st0" d="M208.7,303.4h-59.4c-3.8,0-7,3.1-7,7V403c0,3.8,3.1,7,7,7h59.4c3.8,0,7-3.1,7-7v-92.7
			C215.6,306.5,212.5,303.4,208.7,303.4z M201.7,396h-45.5v-78.8h45.5V396z"/>
	</g>
	<g>
		<path class="st0" d="M118.6,303.4H59.3c-3.8,0-7,3.1-7,7V403c0,3.8,3.1,7,7,7h59.4c3.8,0,7-3.1,7-7v-92.7
			C125.6,306.5,122.5,303.4,118.6,303.4z M111.7,396H66.2v-78.8h45.5V396z"/>
	</g>
</g>
</svg>
