<?xml version="1.0" encoding="utf-8"?>
<!-- Generator: Adobe Illustrator 22.1.0, SVG Export Plug-In . SVG Version: 6.00 Build 0)  -->
<svg version="1.1" id="Layer_1" xmlns="http://www.w3.org/2000/svg" xmlns:xlink="http://www.w3.org/1999/xlink" x="0px" y="0px"
	 viewBox="0 0 500 500" style="enable-background:new 0 0 500 500;" xml:space="preserve">
<style type="text/css">
	.st0{fill:#FFFFFF;}
</style>
<g>
	<g>
		<path class="st0" d="M63.7,388.5h7c3.9,0,7.1-3.2,7.1-7.1c0-3.9-3.2-7.1-7.1-7.1h-7c-3.9,0-7.1,3.2-7.1,7.1
			C56.6,385.3,59.8,388.5,63.7,388.5z"/>
	</g>
	<g>
		<path class="st0" d="M105.5,388.5h7c3.9,0,7.1-3.2,7.1-7.1c0-3.9-3.2-7.1-7.1-7.1h-7c-3.9,0-7.1,3.2-7.1,7.1
			C98.3,385.3,101.6,388.5,105.5,388.5z"/>
	</g>
	<g>
		<path class="st0" d="M147.4,388.5h7c3.9,0,7.1-3.2,7.1-7.1c0-3.9-3.2-7.1-7.1-7.1h-7c-3.9,0-7.1,3.2-7.1,7.1
			C140.2,385.3,143.5,388.5,147.4,388.5z"/>
	</g>
	<g>
		<path class="st0" d="M422.4,228.5c25.3-38.7,21.8-92-13.3-127.2c-41.1-41.1-109.1-40-148.6,5.5H45c-3.9,0-7.1,3.2-7.1,7.1v236.7
			H30c-3.9,0-7.1,3.2-7.1,7.1v33.4c0,11.7,9.6,21.3,21.3,21.3h335.2c11.7,0,21.3-9.6,21.3-21.3v-33.4c0-3.9-3.2-7.1-7.1-7.1h-7.8
			v-88.1c2.4-1.3,4.7-2.7,7-4.2c27.1,36.2,48.6,54.6,64.3,54.6c8.5-0.1,20.1-11.7,20.1-20.2C477.1,277.1,458.7,255.6,422.4,228.5z
			 M386.5,391.1c0,3.9-3.2,7.1-7.1,7.1h-335c-3.9,0-7.1-3.2-7.1-7.1v-26.3h349.3V391.1z M399.1,111.3c34.4,34.4,33.8,89.7,0,123.5
			c-33.9,33.9-89.2,34.4-123.5,0c-28.7-28.7-34.5-74.8-11-110.1C294.9,79,359.9,72.1,399.1,111.3z M98.6,317.4V154h106.1v163.4H98.6
			z M218.9,154h18.7c-6.2,32.9,4.2,67.1,27.9,90.9c0.9,0.9,1.9,1.8,2.8,2.6h-25.2c-3.9,0-7.1,3.2-7.1,7.1c0,3.9,3.2,7.1,7.1,7.1
			h41.6c0.8,0,1.5-0.3,2.2-0.4c12.7,7.3,25.2,11,38.5,12.7c-0.8,2.7-0.1-1.3-0.4,43.5H218.9L218.9,154L218.9,154z M52.1,121h198.2
			c-3.6,6.1-6.6,12.3-8.9,18.9H91.5c-3.9,0-7.1,3.2-7.1,7.1v177.5c0,3.9,3.2,7.1,7.1,7.1h240.7c3.9,0,7.1-3.2,7.1-7.1
			c-0.3-58.7,0.3-46.7-0.3-49.8c11-0.1,21.4-2,32.5-5.9v81.8H52.1V121z M456.8,298.6c-8.1,0-26-13.1-52.8-48.9
			c1.8-1.5,3.5-3.1,5.1-4.7c1.6-1.6,3.1-3.4,4.7-5.1c36,26.8,49,44.9,49,52.3C462.3,294,458.1,298.2,456.8,298.6z"/>
	</g>
	<g>
		<path class="st0" d="M360.6,126c19.8,10,31.5,32.6,28.4,55.2c-0.5,3.9,2.2,7.4,6.1,7.9c0.3,0,0.7,0,0.9,0c3.5,0,6.6-2.6,7-6.2
			c3.9-28.6-11-57.3-36.1-69.8c-3.5-1.8-7.8-0.4-9.6,3.1C355.6,119.9,357.1,124.2,360.6,126z"/>
	</g>
	<g>
		<path class="st0" d="M124.9,186.2h53.5c3.9,0,7.1-3.2,7.1-7.1c0-3.9-3.2-7.1-7.1-7.1h-53.5c-3.9,0-7.1,3.2-7.1,7.1
			C117.7,183,121,186.2,124.9,186.2z"/>
	</g>
	<g>
		<path class="st0" d="M178.4,209.8h-53.5c-3.9,0-7.1,3.2-7.1,7.1c0,3.9,3.2,7.1,7.1,7.1h53.5c3.9,0,7.1-3.2,7.1-7.1
			C185.5,212.9,182.4,209.8,178.4,209.8z"/>
	</g>
	<g>
		<path class="st0" d="M178.4,247.5h-53.5c-3.9,0-7.1,3.2-7.1,7.1c0,3.9,3.2,7.1,7.1,7.1h53.5c3.9,0,7.1-3.2,7.1-7.1
			C185.5,250.7,182.4,247.5,178.4,247.5z"/>
	</g>
	<g>
		<path class="st0" d="M178.4,285.2h-53.5c-3.9,0-7.1,3.2-7.1,7.1c0,3.9,3.2,7.1,7.1,7.1h53.5c3.9,0,7.1-3.2,7.1-7.1
			C185.5,288.5,182.4,285.2,178.4,285.2z"/>
	</g>
	<g>
		<path class="st0" d="M296.8,285.2h-53.5c-3.9,0-7.1,3.2-7.1,7.1c0,3.9,3.2,7.1,7.1,7.1h53.5c3.9,0,7.1-3.2,7.1-7.1
			C303.8,288.5,300.7,285.2,296.8,285.2z"/>
	</g>
</g>
</svg>
