<?xml version="1.0" encoding="utf-8"?>
<!-- Generator: Adobe Illustrator 22.1.0, SVG Export Plug-In . SVG Version: 6.00 Build 0)  -->
<svg version="1.1" id="Layer_1" xmlns="http://www.w3.org/2000/svg" xmlns:xlink="http://www.w3.org/1999/xlink" x="0px" y="0px"
	 viewBox="0 0 500 500" style="enable-background:new 0 0 500 500;" xml:space="preserve">
<style type="text/css">
	.st0{fill:#FFFFFF;}
</style>
<g>
	<g>
		<path class="st0" d="M138.5,234H93.9c-3.8,0-6.9,3-6.9,6.9v37.2c0,3.8,3,6.9,6.9,6.9h44.6c3.8,0,6.9-3,6.9-6.9v-37.2
			C145.4,237,142.2,234,138.5,234z M131.6,271.2h-30.8v-23.4h30.8V271.2z"/>
	</g>
	<g>
		<path class="st0" d="M170.8,284.9h44.6c3.8,0,6.9-3,6.9-6.9v-37.2c0-3.8-3-6.9-6.9-6.9h-44.6c-3.8,0-6.9,3-6.9,6.9V278
			C163.9,281.9,167.1,284.9,170.8,284.9z M177.7,247.8h30.8v23.4h-30.8V247.8z"/>
	</g>
	<g>
		<path class="st0" d="M138.5,310.7H93.9c-3.8,0-6.9,3-6.9,6.9v37.2c0,3.8,3,6.9,6.9,6.9h44.6c3.8,0,6.9-3,6.9-6.9v-37.2
			C145.4,313.8,142.2,310.7,138.5,310.7z M131.6,347.9h-30.8v-23.4h30.8V347.9z"/>
	</g>
	<g>
		<path class="st0" d="M222.3,317.6c0-3.8-3-6.9-6.9-6.9h-44.6c-3.8,0-6.9,3-6.9,6.9v37.2c0,3.8,3,6.9,6.9,6.9h44.6
			c3.8,0,6.9-3,6.9-6.9V317.6z M208.5,347.9h-30.8v-23.4h30.8V347.9z"/>
	</g>
	<g>
		<path class="st0" d="M278.5,161.3c18.8,0,34.2-15.3,34.2-34.2c0-18.8-15.3-34.2-34.2-34.2c-18.8,0-34.2,15.3-34.2,34.2
			C244.3,145.9,259.7,161.3,278.5,161.3z M278.5,106.8c11.3,0,20.4,9.1,20.4,20.4s-9.1,20.4-20.4,20.4s-20.4-9.1-20.4-20.4
			C258.2,115.9,267.4,106.8,278.5,106.8z"/>
	</g>
	<g>
		<path class="st0" d="M369.6,275.3h37.6c3.8,0,6.9-3,6.9-6.9v-37.6c0-3.8-3-6.9-6.9-6.9h-37.6c-3.8,0-6.9,3-6.9,6.9v37.6
			C362.7,272.2,365.8,275.3,369.6,275.3z M376.5,237.8h23.7v23.7h-23.7V237.8z"/>
	</g>
	<g>
		<path class="st0" d="M369.6,365.9h37.6c3.8,0,6.9-3,6.9-6.9v-37.6c0-3.8-3-6.9-6.9-6.9h-37.6c-3.8,0-6.9,3-6.9,6.9V359
			C362.7,362.9,365.8,365.9,369.6,365.9z M376.5,328.5h23.7v23.7h-23.7V328.5z"/>
	</g>
	<g>
		<path class="st0" d="M464.1,397.9h-17V185.2c0-3.8-3-6.9-6.9-6.9h-96.8V78.8c0-0.4-0.1-0.6-0.1-0.8c-0.2-2.3-1.8-4.2-3.4-5.1
			l-58-32.5c-2.9-1.7-6.5-1-8.7,1.6l-58,70.3c-1.1,1.3-1.6,2.2-1.6,8.1v73l-150.2-0.8c-2.2-0.8-4.6-0.7-6.5,0.6
			c-1.9,1.3-3.1,3.4-3.1,5.8v198.9h-17c-3.8,0-6.9,3-6.9,6.9v47.7c0,3.8,3,6.9,6.9,6.9h427.4c3.8,0,6.9-3,6.9-6.9v-47.7
			C471,400.9,467.9,397.9,464.1,397.9z M433.3,192v205.9h-89.9V192H433.3z M255.4,194h-28c-0.1-41.4,0.1-72.3-0.2-74.6l53.1-64.3
			l49.4,27.7c0,6.9,0,313.2,0,315.1h-74.1 M67.5,209.4h174.2v188.5c-43.1,0-128.2,0-174.2,0C67.5,397.9,67.5,209.4,67.5,209.4z
			 M457.2,445.6H43.6v-34c176.9,0,412.4,0,413.6,0L457.2,445.6L457.2,445.6z"/>
	</g>
</g>
</svg>
