<?xml version="1.0" encoding="utf-8"?>
<!-- Generator: Adobe Illustrator 22.1.0, SVG Export Plug-In . SVG Version: 6.00 Build 0)  -->
<svg version="1.1" id="Layer_1" xmlns="http://www.w3.org/2000/svg" xmlns:xlink="http://www.w3.org/1999/xlink" x="0px" y="0px"
	 viewBox="0 0 500 500" style="enable-background:new 0 0 500 500;" xml:space="preserve">
<style type="text/css">
	.st0{fill:#FFFFFF;}
</style>
<g>
	<g>
		<path class="st0" d="M451.6,45.4H256.5c-8,0-14.5,6.5-14.5,14.5v19.4c-10.3-1.7-20.7-2.6-31-2.6c-103.3,0-190.4,83.6-190.4,190.5
			c0,106,86.1,190.5,190.4,190.5c0.3,0,0.6,0,0.9,0c62.5-0.4,119.3-30.3,154.7-80.7l-0.1,77c0,7.6,6,13.8,13.6,13.8H417l0,0
			c7.5,0,13.6-6.2,13.6-13.6v-25.4c0.6-1.7,0.6-2,0-3.7l0.3-207.6h20.5c8,0,14.5-6.5,14.5-14.5v-143
			C466.1,51.9,459.7,45.4,451.6,45.4z M282.8,244.4l34.3-27h49.7v42.8H298h-0.1h-0.1h-79.9v-65.5c8-0.3,16.1-1,24.1-2.4v10.5
			c0,8,6.5,14.5,14.5,14.5h15.2v21.6C271.7,244.8,278.4,247.8,282.8,244.4z M413,172.7h-27.9l13.9-26.4L413,172.7z M380.2,420
			c0.1-64.5-0.1,85.6,0.4-233.6h11.6L391.9,420H380.2z M405.8,186.3h11.6c-0.1,50.1-0.3,182.5-0.4,233.6h-11.6L405.8,186.3z
			 M252.1,438.9c15.5-15.1,28.4-38.4,37.6-67.4c14.2,7,27.4,16.1,39.5,27C323,402.7,299.5,427.6,252.1,438.9z M92.7,398.4
			c12.1-10.9,25.3-19.8,39.5-27c9.2,29,22.1,52.4,37.6,67.4C141.3,432,115.1,418.8,92.7,398.4z M34.4,274h82.9
			c0.6,30.6,4.5,59.1,10.9,84.1c-16.4,7.9-31.6,18.2-45.4,30.7C53.1,357.5,36.1,317.1,34.4,274z M83,145.4
			c13.8,12.5,29,22.8,45.4,30.6c-6.8,25.9-10.6,54.6-11.1,84.2H34.4C36.1,216.9,53.1,176.6,83,145.4z M170,95.4
			c-15.2,14.8-28.3,37.8-37.8,67.4c-14.2-7-27.6-15.9-39.7-26.9C111,118.5,139,102.7,170,95.4z M145,365.7
			c18.7-7.5,38.5-11.6,59.1-12.5v89.8C179.9,438.4,158.4,408.5,145,365.7z M204.1,339.4c-21.8,0.7-43,5.2-62.8,12.9
			c-6-23.6-9.8-50.3-10.2-78.4h73V339.4z M131.1,260.2c0.4-27.6,3.9-54.5,10.1-78.6c20,7.9,41.1,12.4,62.9,13.1v65.5H131.1z
			 M204.1,91.1V181c-20.5-0.7-40.4-5-59.2-12.6C158.5,124.7,180.7,95.8,204.1,91.1z M217.9,90.7c7.6,0.3,12.4,0.4,24.1,2.4v85.3
			c-8,1.4-16.1,2.2-24.1,2.4V90.7z M217.9,443.1v-89.8c20.5,0.7,40.4,5,59.1,12.5C263.6,408.5,242,438.4,217.9,443.1z M217.9,339.4
			V274h73c-0.6,28.2-4.2,54.9-10.2,78.4C260.8,344.5,239.7,340.2,217.9,339.4z M339,388.8c-13.6-12.5-29-22.8-45.3-30.6
			c6.6-25,10.5-53.6,10.9-84.1h62.1l-0.1,76.7C359.1,364.6,349.9,377.3,339,388.8z M417,454.2l-36.9-0.1v-20.4c0.7,0,38.9,0,36.9,0
			V454.2z M417,460.9V454l0,0V460.9z M452.5,202.9c0,0.4-0.4,0.9-0.9,0.9h-20.5v-24.1l0,0l0,0c-0.1-0.7-0.1-1.9-0.7-3.2
			c-25.3-47.8-25.6-51.7-31.3-51.7c-64.7,0-38.6,0-106.6,0c-3.7,0-6.9,3-6.9,6.9c0,3.7,3,6.9,6.9,6.9h95.1
			c-2,3.9,7.5-14.1-20.1,38.1c-0.3,0.7-0.7,2-0.7,3l0,0l0,0v24.3h-52c-1.6,0-3,0.6-4.2,1.4l-25,19.7v-14.4c0-3.7-3-6.9-6.9-6.9
			h-22.1c-0.4,0-0.7-0.4-0.7-0.9v-143c0-0.4,0.4-0.7,0.7-0.7h195.1c0.4,0,0.9,0.3,0.9,0.7L452.5,202.9L452.5,202.9z"/>
	</g>
	<g>
		<path class="st0" d="M415.6,86.3H292.4c-3.7,0-6.9,3-6.9,6.9s3,6.9,6.9,6.9h123.1c3.7,0,6.9-3,6.9-6.9S419.4,86.3,415.6,86.3z"/>
	</g>
	<g>
		<path class="st0" d="M292.6,176.6H340c3.7,0,6.9-3,6.9-6.9c0-3.7-3-6.9-6.9-6.9h-47.4c-3.7,0-6.9,3-6.9,6.9
			C285.7,173.4,288.7,176.6,292.6,176.6z"/>
	</g>
</g>
</svg>
