<?xml version="1.0" encoding="utf-8"?>
<!-- Generator: Adobe Illustrator 22.1.0, SVG Export Plug-In . SVG Version: 6.00 Build 0)  -->
<svg version="1.1" id="Layer_1" xmlns="http://www.w3.org/2000/svg" xmlns:xlink="http://www.w3.org/1999/xlink" x="0px" y="0px"
	 viewBox="0 0 500 500" style="enable-background:new 0 0 500 500;" xml:space="preserve">
<style type="text/css">
	.st0{fill:#FFFFFF;}
</style>
<g>
	<g>
		<path class="st0" d="M403.3,316.7c0-38.8-14.5-75.4-40.7-103.7c23.8-57.9,35.8-95.8,35.8-112.4c0-41.1-33.5-74.6-74.6-74.6
			c-41.2,0-74.7,33.5-74.7,74.6c0,11.6,5.5,32.6,16.9,63.6c-5.3-0.5-10.5-0.9-15.8-0.9c-0.1,0-0.1,0-0.3,0c-0.1,0-0.1,0-0.3,0
			c-46.9,0.1-90.5,21.5-119.5,57.7v-79.7c13,5.9,25.4-1.2,37.1-8.8c15.7-10,22.4-12.8,31.1-1.6c1.8,2.3,5,3.2,7.7,2.3
			c2.8-0.9,4.7-3.6,4.7-6.6V66.8c0-1.5-0.5-3.1-1.5-4.3c-17.3-22.3-36.7-9.9-49.6-1.6c-15.7,10-22.4,12.8-31.1,1.6
			c-3.9-5.1-12.4-2.3-12.4,4.3c0,63.6,0,111.8,0,174.5c-12.6,22.2-19.7,47.7-19.7,75l0,0l0,0l0,0c0,84.4,68.8,153.3,153.3,153.3
			C334.6,470,403.3,401.1,403.3,316.7z M167.5,73c14.7-9.5,21.6-12.4,29.7-3.4V112c-13.6-6.2-27.3,2.6-37.1,8.9
			c-14.7,9.5-21.6,12.4-29.7,3.4V81.9C144,88.1,157.6,79.4,167.5,73z M110.9,323.6h56.7c0.5,22.7,3.6,44,8.8,62.9
			c-10.9,6.1-21.2,13.6-30.5,22.4C125.3,386,112.5,356.3,110.9,323.6z M145.9,224.3c9.5,8.9,19.7,16.5,30.8,22.6
			c-5.3,19.5-8.4,40.9-8.9,62.8h-56.9C112.5,277.1,125.3,247.4,145.9,224.3z M297.7,243.2c-13.1,4.9-26.7,7.6-40.8,8.2v-73.9
			c5,0.3,9.9,0.7,14.6,1.4C278.1,196.6,290,225.2,297.7,243.2z M356.9,227.3c19.6,23.2,30.8,52,32.3,82.5h-56.9
			c-0.1-7.7-0.7-15.3-1.4-22.8C333.4,281.3,344.4,256.9,356.9,227.3z M243,251.4c-17.4-0.8-34.3-4.9-49.8-11.9
			c11.5-34.6,29.9-57.1,49.8-61.5L243,251.4L243,251.4z M243,265.4v44.4h-61.5c0.5-19.7,3.1-38.9,7.7-56.6
			C206.1,260.4,224.2,264.4,243,265.4z M243,323.6V368c-18.8,0.8-37,4.9-53.8,12.2c-4.5-17.3-7.2-36.5-7.7-56.6H243z M243,381.9
			v73.3c-20.5-4.5-38.6-28.1-49.8-61.6C208.8,386.8,225.6,382.9,243,381.9z M256.9,381.9c17.4,0.8,34.3,4.9,49.8,11.8
			c-11.2,33.5-29.3,57.3-49.8,61.6V381.9z M256.9,368.2v-44.4h61.5c-0.5,20.1-3.2,39.4-7.7,56.6C293.9,373,275.7,369,256.9,368.2z
			 M316.9,286.4c0.8,7.7,1.4,15.4,1.5,23.2h-61.5v-44.4c15.9-0.7,31.5-3.8,46.3-9.3C310,271.2,315,282.5,316.9,286.4z M180.7,233.2
			c-9.1-5.3-17.4-11.5-25.1-18.8c15-13.9,33-24.6,53-30.9C197.3,195.4,187.9,212.3,180.7,233.2z M180.5,400.3
			c7,20.5,16.7,37.6,28.2,49.7c-20.1-6.2-38.1-17-53.2-30.9C163.2,411.8,171.5,405.4,180.5,400.3z M319.4,400.3
			c8.9,5.1,17.4,11.5,25.1,18.6c-15.1,13.9-33.2,24.7-53.2,30.9C302.7,437.9,312.4,420.8,319.4,400.3z M323.6,386.5
			c5.1-18.9,8.2-40.3,8.6-62.9H389c-1.6,32.7-14.5,62.4-34.9,85.4C344.8,400.3,334.7,392.6,323.6,386.5z M323.9,40
			c33.5,0,60.7,27.3,60.7,60.7c0,30-48.5,140.2-60.7,167.8c-12.3-27.6-60.8-137.8-60.8-167.8C263.1,67.2,290.4,40,323.9,40z"/>
	</g>
	<g>
		<path class="st0" d="M323.9,141.5c22.4,0,40.8-18.2,40.8-40.8s-18.2-40.8-40.8-40.8c-22.4,0-40.8,18.2-40.8,40.8
			S301.5,141.5,323.9,141.5z M323.9,73.8c14.9,0,26.9,12,26.9,26.9s-12,26.9-26.9,26.9s-26.9-12-26.9-26.9
			C297,85.8,309,73.8,323.9,73.8z"/>
	</g>
</g>
</svg>
