<?xml version="1.0" encoding="utf-8"?>
<!-- Generator: Adobe Illustrator 22.1.0, SVG Export Plug-In . SVG Version: 6.00 Build 0)  -->
<svg version="1.1" id="Layer_1" xmlns="http://www.w3.org/2000/svg" xmlns:xlink="http://www.w3.org/1999/xlink" x="0px" y="0px"
	 viewBox="0 0 500 500" style="enable-background:new 0 0 500 500;" xml:space="preserve">
<style type="text/css">
	.st0{fill:#FFFFFF;}
</style>
<g>
	<g>
		<path class="st0" d="M472,62.1v-0.1c0-27.5-66.5-40-128.4-40s-128.4,12.5-128.4,40c0,0.7,0.3,1.4,0.3,2.1
			c-0.7,2.9-0.1-4.4-0.3,38.9c-48.3-3.1-80.5,9-95.4,36.1c-15.1,27.4-7.3,61.4-2.6,76.6c-22.2,13.4-14.1,52.7,7.7,61.7
			c1.6,0.7,3.4,2.6,3.7,3.4c2.7,8.6,9.4,24.1,24.8,36.8V344l-4.5,7.5c-33,4.2-101.3,17.8-108.5,58.7l-10.4,62
			c-0.7,4.4,2.7,8.3,7.1,8.3h322.4c4.4,0,7.8-4,7.1-8.3L356.2,410c-7.3-41.3-75.3-54.6-107.4-58.7l-5.5-7.8v-25.9
			c23.8-19.7,22-37.6,28.1-40.1c8.8-3.6,12.7-10.4,16-16c0.7-1.2,1.4-2.6,1.9-4c17,2.2,35.4,3.4,54.2,3.4
			c61.8,0,128.4-12.5,128.4-40v-52.5c0-0.1,0-0.1,0-0.3c0-0.1,0-0.3,0-0.4v-52.4c0-0.1-0.1-0.3-0.1-0.5s0.1-0.4,0.1-0.7V62.1H472z
			 M457.8,168c0,16.3-90.6,33.9-171.9,21.5c1.6-16.1,0.7-29-2.2-39.4c47.6,7.3,136.4,6.8,174.1-16L457.8,168L457.8,168z M229.7,81.5
			c22.9,13.8,69.6,20.4,114,20.4c44.5,0,91.1-6.4,114-20.4v32.8c0,18.2-103,34.6-180.8,20.1h-0.1c-10.4-16.3-28.1-23.5-47.1-29.3
			V81.5z M343.6,36.4c73.6,0,114,16.8,114,25.6l0,0l0,0c-0.3,8.8-40.5,25.6-114,25.6c-73.8,0-114-17-114-25.6
			C229.7,53.2,269.9,36.4,343.6,36.4z M134.7,142.5c13.3-20.1,41.9-28.6,84-25c1.9,0.1,4,0.5,6,1.1c28.2,8.5,57.2,17.1,44.6,85.1
			c-4-5.5-7.9-11.8-11.8-18.6c-6.8-12.6-23.5-15.9-34.9-6.8c-16.4,13-49.1,34.9-84.6,34.9c-2.2,0-4.4-0.1-6.6-0.3
			C127.9,201.6,118.6,166.8,134.7,142.5z M234.2,355.2l3.6,5.1l-13.5,23.9L210,367.8L234.2,355.2z M229.3,341.6l-30.7,16l-30.7-16
			V327c9.6,4.7,20.1,7.1,30.7,7.1c10.5,0,21.1-2.5,30.7-7.1L229.3,341.6L229.3,341.6z M163.6,355.4l23.7,12.3l-14.1,16.1l-12.5-23.8
			L163.6,355.4z M342.3,412.6l9,53.6h-49.8v-35.9c0-4-3.1-7.1-7.1-7.1c-4,0-7.1,3.1-7.1,7.1v35.9H110.1v-35.9c0-4-3.1-7.1-7.1-7.1
			s-7.1,3.1-7.1,7.1v35.9H46l9-53.6c4.5-25.6,49.8-40.5,92.9-46.5l17.5,33.7c2.3,4.5,8.5,5.2,11.8,1.4l21.5-24.8l21.5,24.8
			c3.3,3.7,9.2,3.1,11.6-1.2L251,366C293.3,372,337.8,386.9,342.3,412.6z M266.2,264.5c-4.2,1.8-9.6,6.2-11.4,11.8
			c-2.5,8.1-9.2,23.4-25.9,34.6c-32.3,21.6-74.7,3.1-86.5-34.2c-1.8-5.9-7.4-10.5-11.9-12.3c-12.5-5.2-17.8-32.6-3.4-37.2
			c37.4,4.1,75.1-14.1,104.4-37.4c2.1-1.6,4.2-2.1,5.6-2.1c3.3,0,6.2,1.6,7.7,4.5c3.6,6.6,19.4,32.7,26.5,34.5
			c3.6,1,10.9,15.2,3.6,28.1C272.1,259.7,270.2,262.8,266.2,264.5z M292.6,243.7c0.4-12.5-5.9-23.7-11.2-27.8
			c1-4.2,1.8-8.3,2.5-12.2c47.8,7.3,136.3,6.7,173.9-16v33.5C457.8,236.3,375.5,254.2,292.6,243.7z"/>
	</g>
	<g>
		<path class="st0" d="M205.6,405.5h-7.3c-4,0-7.1,3.1-7.1,7.1c0,4,3.1,7.1,7.1,7.1h7.3c4,0,7.1-3.1,7.1-7.1
			C212.7,408.7,209.6,405.5,205.6,405.5z"/>
	</g>
	<g>
		<path class="st0" d="M205.6,434.5h-7.3c-4,0-7.1,3.1-7.1,7.1c0,4,3.1,7.1,7.1,7.1h7.3c4,0,7.1-3.1,7.1-7.1
			C212.7,437.7,209.6,434.5,205.6,434.5z"/>
	</g>
</g>
</svg>
