<?xml version="1.0" encoding="utf-8"?>
<!-- Generator: Adobe Illustrator 22.1.0, SVG Export Plug-In . SVG Version: 6.00 Build 0)  -->
<svg version="1.1" id="Layer_1" xmlns="http://www.w3.org/2000/svg" xmlns:xlink="http://www.w3.org/1999/xlink" x="0px" y="0px"
	 viewBox="0 0 500 500" style="enable-background:new 0 0 500 500;" xml:space="preserve">
<style type="text/css">
	.st0{fill:#FFFFFF;}
</style>
<g>
	<g>
		<path class="st0" d="M146.8,170.4c16.9,0,30.6-13.7,30.6-30.6s-13.7-30.6-30.6-30.6s-30.6,13.7-30.6,30.6
			C116.2,156.7,129.9,170.4,146.8,170.4z M146.8,123.4c9.1,0,16.4,7.3,16.4,16.4s-7.3,16.4-16.4,16.4s-16.4-7.3-16.4-16.4
			S137.7,123.4,146.8,123.4z"/>
	</g>
	<g>
		<path class="st0" d="M448,363.7H340.1V109.5c0-3.9-3.2-7.1-7.1-7.1c-3.9,0-7.1,3.2-7.1,7.1v230.4h-13.7
			c-0.1-59.7-0.1-50.6-0.1-51.6L275,98.5c-2-9.9-10.8-17.3-20.9-17.3h-158c-11.8,0-21.3,9.6-21.3,21.3v179.9H43.4
			c-7.6,0-13.7,6.1-13.7,13.7v88.7c0,7.6,6.1,13.7,13.7,13.7h11.9c0.1,0,0.2,0,0.2,0c3.2,15.2,16.8,26.6,32.8,26.6
			c16.2,0,29.6-11.4,32.8-26.6h99.5c3.3,15.2,16.8,26.6,32.8,26.6c16.2,0,29.6-11.4,32.8-26.6h12.1c7.6,0,13.7-6.1,13.7-13.7V354
			h13.7v16.7c0,3.9,3.2,7.1,7.1,7.1h115c3.9,0,7.1-3.2,7.1-7.1C455.1,366.9,451.9,363.7,448,363.7z M173,218.8l45.3,8.5l0,0
			c4.3,0.7,7.5,4.2,7.6,8c0.2,6-5,9.9-10.2,8.9l-40.2-7.5c-4.4-0.9-8.5,2.6-8.5,7v38.8h-40.7v-77.2c0-4.8,3.8-8.6,8.6-8.6h23.5
			c4.8,0,8.6,3.8,8.6,8.6v6.5C167.3,215.2,169.6,218.2,173,218.8z M89.2,102.7c0-3.9,3.2-7.1,7.1-7.1h158c3.4,0,6.4,2.4,7,5.8
			l33.6,172.5l-25.5-17.9l2.3-3.1c2.3-3.2,1.7-7.6-1.3-9.9c-3.1-2.3-7.6-1.7-9.9,1.3L247,262c-2.3,3.2-1.7,7.6,1.3,9.9
			c3.1,2.3,7.6,1.8,9.9-1.3l2.6-3.4l21.9,15.4H181.3v-30.3l31.8,5.9c14.3,2.7,27.4-8.6,26.9-23.5c-0.4-10.4-8.5-19.5-19.2-21.4l0,0
			l-39.6-7.3c-0.4-0.7,1.3-23.3-22.8-23.4H135c-12.6,0-22.8,10.2-22.8,22.8v77.2h-23V102.7z M88.4,411.2c-10.7,0-19.5-8.7-19.5-19.5
			c0-10.8,8.7-19.5,19.5-19.5s19.5,8.7,19.5,19.5C107.8,402.4,99.1,411.2,88.4,411.2z M253.6,411.2c-10.8,0-19.5-8.7-19.5-19.5
			c0-10.8,8.7-19.5,19.5-19.5s19.5,8.7,19.5,19.5C273,402.4,264.3,411.2,253.6,411.2z M286.4,384.6c-3.3-15.2-16.8-26.5-32.8-26.5
			s-29.5,11.4-32.8,26.5h-99.5c-3.3-15.2-16.8-26.5-32.8-26.5c-16.2,0-29.6,11.4-32.8,26.6c-0.1,0-0.2-0.1-0.4-0.1l-11.4,0.5
			l-0.4-48.9h22.9c3.9,0,7.1-3.2,7.1-7.1s-3.2-7.1-7.1-7.1H43.5l-0.1-25.2c101.1,0,247.9,0,254.8,0c0.1,35.8,0.2,48.4,0.5,87.8
			H286.4z"/>
	</g>
	<g>
		<path class="st0" d="M476.9,236.1c-18.7,0-56.7,0-76.4,0h-40.9c-3.9,0-7.1,3.2-7.1,7.1v101.1c0,3.9,3.2,7.1,7.1,7.1h117.3
			c3.9,0,7.1-3.2,7.1-7.1V243.2C484,239.2,480.8,236.1,476.9,236.1z M428.9,250.3v14.2h-21.3v-14.2L428.9,250.3L428.9,250.3z
			 M469.8,337.1H366.7v-86.8h26.7v21.3c0,3.9,3.2,7.1,7.1,7.1H436c3.9,0,7.1-3.2,7.1-7.1v-21.3h26.7L469.8,337.1L469.8,337.1z"/>
	</g>
	<g>
		<path class="st0" d="M476.9,109c-24.1,0-76.7,0-117.3,0c-3.9,0-7.1,3.2-7.1,7.1v101.1c0,3.9,3.2,7.1,7.1,7.1h117.3
			c3.9,0,7.1-3.2,7.1-7.1V116.1C484,112.2,480.8,109,476.9,109z M428.9,123.2v14.2h-21.3v-14.2H428.9z M469.8,210H366.7v-86.8h26.7
			v21.3c0,3.9,3.2,7.1,7.1,7.1H436c3.9,0,7.1-3.2,7.1-7.1v-21.3h26.7L469.8,210L469.8,210z"/>
	</g>
	<g>
		<path class="st0" d="M255.3,384.6h-3.6c-3.9,0-7.1,3.2-7.1,7.1s3.2,7.1,7.1,7.1h3.6c3.9,0,7.1-3.2,7.1-7.1
			S259.2,384.6,255.3,384.6z"/>
	</g>
	<g>
		<path class="st0" d="M90.2,384.6h-3.6c-3.9,0-7.1,3.2-7.1,7.1s3.2,7.1,7.1,7.1h3.6c3.9,0,7.1-3.2,7.1-7.1S94.1,384.6,90.2,384.6z"
			/>
	</g>
</g>
</svg>
