<?xml version="1.0" encoding="utf-8"?>
<!-- Generator: Adobe Illustrator 22.1.0, SVG Export Plug-In . SVG Version: 6.00 Build 0)  -->
<svg version="1.1" id="Layer_1" xmlns="http://www.w3.org/2000/svg" xmlns:xlink="http://www.w3.org/1999/xlink" x="0px" y="0px"
	 viewBox="0 0 500 500" style="enable-background:new 0 0 500 500;" xml:space="preserve">
<style type="text/css">
	.st0{fill:#FFFFFF;}
</style>
<g>
	<g>
		<path class="st0" d="M243.9,154.4c4.1,1.5,8.7,1.5,12.6,0c24.7-10.1,36.7-29.7,43.3-55.3c0-0.1,0.1-0.4,0.1-0.6
			c5.2-21,3.4-37.9-5.6-50.3c-19.8-27.9-71.7-27.9-89.5,3.4C188.8,79.1,202,138.6,243.9,154.4z M251,141.1c-0.6,0.1-1.4,0.3-2.2,0
			c-22.3-8.4-29.1-28.5-29.3-29.5l-3.1-10.3c22.9-2.5,42-12.8,51.4-18.7c5.3,6.4,12.7,13.1,17,16.9C279.5,117.3,271,133,251,141.1z
			 M217.1,58.4c13.1-22.9,52-21.5,65.6-2.2c4.9,6.8,6.7,15.9,5.4,27.2c-5.2-4.9-10.3-10.2-12.3-14c-2.1-3.9-7.1-4.9-10.5-2.2
			c-0.3,0.1-23.5,17.6-52.2,20.1C211.8,77.5,212.2,66.8,217.1,58.4z"/>
	</g>
	<g>
		<path class="st0" d="M112.4,385.2c3.9,1.5,8.2,1.4,11.9,0c22.8-9.2,33.8-27.5,39.7-50.8c0-0.1,0.1-0.3,0.1-0.4
			c4.7-19.3,3.1-34.8-5.2-46.4c-18.3-25.7-66.1-25.7-82.5,3.1C62,316.1,74,370.7,112.4,385.2z M119,372.1c-0.3,0.1-1,0.1-1.5,0
			c-20-7.5-26-25.6-26.3-26.4l-2.7-8.7c20.1-2.4,37.2-11.3,45.7-16.6c4.6,5.6,11,11.3,14.9,14.7C144.6,350.9,137,364.7,119,372.1z
			 M89,297.8c11.6-20.3,46.4-19.1,58.7-2c4.2,5.9,5.7,13.5,5,23c-4.3-4.2-8.5-8.5-10.2-11.6c-2.1-3.9-7.1-4.9-10.5-2.2
			c-0.3,0.1-21,15.6-46.5,18.2C84.2,314.4,84.8,305.1,89,297.8z"/>
	</g>
	<g>
		<path class="st0" d="M152.7,384c-2.8-1.1-6-0.3-8,2.1l-26.4,31.7l-26.4-31.7c-2-2.4-5.2-3.2-8-2.1c-31.7,12-55,40.4-60.8,73.9
			c-2.1,12.2,7.3,23.5,19.7,23.5h150.7c12.4,0,21.8-11.2,19.7-23.5C207.7,424.3,184.5,396,152.7,384z M193.7,466.9H43
			c-3.6,0-6.4-3.4-5.7-6.8c4.6-27,22.5-49.9,47.2-61l28.5,34.2c1.4,1.7,3.4,2.5,5.4,2.5l0,0c2.1,0,4.1-1,5.4-2.5l28.4-34.2
			c24.7,11.2,42.6,34.2,47.2,61C200.2,463.7,197.4,466.9,193.7,466.9z"/>
	</g>
	<g>
		<path class="st0" d="M339.8,290.7c-13.4,23.5-0.4,55.7,1.1,59.5c1.1,3.5,9.5,25.6,34.8,35.1c3.9,1.4,8.2,1.4,11.9,0
			c23.3-9.5,32.4-29.6,34.2-34.2c0.1-0.3,0.1-0.4,0.3-0.7c2.1-5.4,3.9-10.8,5.2-15.8c0-0.3,0.1-0.4,0.1-0.7
			c4.7-19.3,3.1-34.8-5.2-46.2C404.1,261.9,356.3,261.9,339.8,290.7z M409.2,344.5c-0.1,0.3-0.3,0.6-0.4,1
			c-5.6,15.8-24.6,27.9-28.1,26.7c-20-7.5-26-25.6-26.3-26.4l-2.7-8.7c20.1-2.4,37.2-11.3,45.7-16.6c4.6,5.6,10.9,11.3,14.9,14.7
			C411.6,338,410.5,341.1,409.2,344.5z M352.3,297.8c11.6-20.3,46.4-19.1,58.7-2c4.2,5.9,5.7,13.5,5,23c-4.3-4.2-8.5-8.5-10.2-11.6
			c-1-1.8-2.7-3.1-4.7-3.5c-2-0.4-4.2,0-5.7,1.3c-0.3,0.1-21,15.6-46.5,18.2C347.5,314.4,348.1,305.1,352.3,297.8z"/>
	</g>
	<g>
		<path class="st0" d="M476.7,457.7c-5.7-33.4-28.9-61.7-60.8-73.9c-2.8-1.1-6-0.3-8,2.1l-26.4,31.7l-26.4-31.7
			c-2-2.4-5.2-3.2-8-2.1c-31.7,12-55,40.4-60.8,73.9c-2.1,12.2,7.3,23.5,19.7,23.5h150.7C469.4,481.2,478.8,470,476.7,457.7z
			 M457,466.9H306.3c-3.6,0-6.4-3.4-5.7-6.8c4.6-27,22.5-49.9,47.2-61l28.5,34.2c2.8,3.4,8.1,3.4,10.9,0l28.5-34.2
			c24.7,11.2,42.6,34.2,47.2,61C463.4,463.7,460.6,466.9,457,466.9z"/>
	</g>
	<g>
		<path class="st0" d="M313,367.6c0-3.9-3.2-7.1-7.1-7.1H257V259.8h75.7c13.3,0,23.2-11.9,21.1-25c-6.3-36.5-31.7-67.5-66.3-80.6
			c-2.8-1.1-6-0.3-8,2.1L250,191.8l-29.5-35.5c-2-2.4-5.2-3.2-8-2.1c-34.6,13.1-60.1,44.1-66.3,80.6c-2.2,13,7.8,25,21.1,25H243
			v100.7h-48.9c-3.9,0-7.1,3.2-7.1,7.1c0,3.9,3.2,7.1,7.1,7.1h111.7C309.8,374.8,313,371.5,313,367.6z M160.1,237.2
			c5.2-30,25.1-55.6,52.8-67.9l31.7,38.1c2.8,3.4,8.1,3.4,10.9,0l31.7-38.1c27.7,12.3,47.6,37.9,52.8,67.9c0.7,4.5-2.7,8.4-7,8.4
			H167.2C162.7,245.6,159.4,241.7,160.1,237.2z"/>
	</g>
</g>
</svg>
