<?xml version="1.0" encoding="utf-8"?>
<!-- Generator: Adobe Illustrator 22.1.0, SVG Export Plug-In . SVG Version: 6.00 Build 0)  -->
<svg version="1.1" id="Layer_1" xmlns="http://www.w3.org/2000/svg" xmlns:xlink="http://www.w3.org/1999/xlink" x="0px" y="0px"
	 viewBox="0 0 500 500" style="enable-background:new 0 0 500 500;" xml:space="preserve">
<style type="text/css">
	.st0{fill:#FFFFFF;}
</style>
<g>
	<g>
		<path class="st0" d="M451.8,319.3c-46.8-3.1-70.2-32.1-70.5-32.4c-1.3-1.6-3.1-2.5-5.2-2.5c-2,0.1-3.9,0.9-5.2,2.5
			c-0.1,0.1-6,7.5-17.7,15.1c-19.3-15.2-45-22.7-76.3-37.1L265.2,254c0.4-4.3,0.4-8.9,0.3-13.6c4.8-6.9,8.9-14.9,11.8-24.2
			c0.5-1.6,1.4-2.8,2.8-3.7c17.2-11,25.4-36.6,25.7-37.2c2.4-6,3.3-17.8-13.5-30.7C317.5,10.8,123,3.4,135.7,144.7
			c-16.6,12.7-15.6,24.4-13.4,30.1c0.4,1,8.7,26.6,25.8,37.6c1.3,0.8,2.2,2.1,2.8,3.7c1.8,6,5.8,16.1,13.2,26.1
			c-0.1,4.1,0,8,0.3,11.7l-11.8,11c-27.4,15.2-91.6,24.8-107.9,84.1c-3.1,11.5-3.7,22.3-1.3,31.7c0.8,3,3.4,5,6.4,5h253.9
			c9.8,32.9,29.8,69.2,70.5,81.1c0.7,0.1,1.2,0.3,1.8,0.3c0.7,0,1.3-0.1,1.8-0.3c78.4-23.1,79.9-136.3,80.1-141.2
			C458,322.4,455.4,319.4,451.8,319.3z M266.4,273.2l-3.9,45.1c-6-4.8-13.9-11-21.1-16.1c10.2-8,17.4-19,21.2-32.5L266.4,273.2z
			 M178,256.4c23.6,18.2,48.5,19.7,73.8-1.3c-2.1,17.7-10.5,38.1-37.1,45.7C189.7,293.6,180.5,275,178,256.4z M212,56.9
			c63.7,0,81.1,43.9,63.4,100.3c-2.6-9-6-18.1-8.1-23.6c-10.4-26.2-35.5-31.3-50.2-3.8c-1.2,2.4-3.5,3.9-6,4.5
			c-32.6,5.6-31.6-18.7-42.3-14.9c-3.4,1.3-10.1,3.7-17.3,39.3C138.6,107.8,155.8,56.9,212,56.9z M134.9,170.5
			c-1.3-3.4,0.5-7.1,3.4-10.2c1.2,5.1,2.9,10.4,5.1,15.3c3.9,9,17.3,7.3,18.9-2.4c3.4-20.1,6.7-31.5,9-37.2
			c15.7,14.9,48,18,57.5-0.1c9-16.9,19.8-13.5,26.2,2.5c12.6,31.7,8.3,39.1,18.9,40.1c4.6,0.4,8.5-2.1,10.2-6.2
			c1.8-4.5,3.3-8.9,4.6-13.2c3.5,3.5,6,7.7,4.5,11.8c-0.1,0.3-7.2,22-20.3,30.4c-3.9,2.5-6.9,6.4-8.3,11
			c-10.1,33.4-41.3,48.8-57.3,44.2c-22-6.2-37.4-23.3-43.6-44.2C159.4,198.6,145.5,202.5,134.9,170.5z M167.2,269.5
			c3.8,13.6,10.9,24.6,21.1,32.6c-7.3,5.1-15.2,11.3-21.1,16.1l-3.9-45.1L167.2,269.5z M55.4,372.6c-0.7-6,0.1-12.7,2.1-19.9
			c13-47.3,62-58.1,93.2-72l4.5,51.2c0.5,5.4,6.8,7.9,10.9,4.5c0.3-0.1,20.7-17.7,34.9-26.7c3.8,1.7,8,3.3,12.5,4.3
			c1,0.3,2.2,0.3,3.3,0c4.5-1.2,8.5-2.6,12.3-4.3c14,9,34.6,26.5,34.9,26.7c4.1,3.4,10.5,0.9,10.9-4.5l4.5-51.6
			c27.1,12.1,46.1,18.3,61.5,28.7c-10.6,5-23.9,9.2-40,10.2c-3.5,0.3-6.2,3.1-6.2,6.7c0,2,0.3,22,6,46.7H55.4z M376.2,453.8
			c-57.7-18.6-67-99.1-68.4-121.9c36.3-4.2,58.8-21.9,68.4-31.2c9.6,9.3,32.1,27,68.4,31.2C443.1,354.7,433.9,435.2,376.2,453.8z"/>
	</g>
	<g>
		<path class="st0" d="M368,350.5c-3.7,0-6.6,3-6.6,6.6c0,3.7,3,6.6,6.6,6.6h1.6v39.6c0,3.7,3,6.6,6.6,6.6c3.7,0,6.6-3,6.6-6.6
			v-39.6h1.6c3.7,0,6.6-3,6.6-6.6c0-3.7-3-6.6-6.6-6.6H368z"/>
	</g>
</g>
</svg>
