<?xml version="1.0" encoding="utf-8"?>
<!-- Generator: Adobe Illustrator 22.1.0, SVG Export Plug-In . SVG Version: 6.00 Build 0)  -->
<svg version="1.1" id="Layer_1" xmlns="http://www.w3.org/2000/svg" xmlns:xlink="http://www.w3.org/1999/xlink" x="0px" y="0px"
	 viewBox="0 0 500 500" style="enable-background:new 0 0 500 500;" xml:space="preserve">
<style type="text/css">
	.st0{fill:#FFFFFF;}
</style>
<g>
	<g>
		<path class="st0" d="M82.8,92.5H69.9c-3.9,0-7,3.1-7,7c0,3.9,3.1,7,7,7h12.9c3.9,0,7-3.1,7-7C89.8,95.7,86.7,92.5,82.8,92.5z"/>
	</g>
	<g>
		<path class="st0" d="M134.4,92.5h-12.9c-3.9,0-7,3.1-7,7c0,3.9,3.1,7,7,7h12.9c3.9,0,7-3.1,7-7C141.4,95.7,138.3,92.5,134.4,92.5z
			"/>
	</g>
	<g>
		<path class="st0" d="M186.2,92.5h-12.9c-3.9,0-7,3.1-7,7c0,3.9,3.1,7,7,7h12.9c3.9,0,7-3.1,7-7C193.2,95.7,190.1,92.5,186.2,92.5z
			"/>
	</g>
	<g>
		<path class="st0" d="M470.7,258.5c-16-7.2-17.3-19.5-17.3-20.2c-0.3-3.6-3.2-6.5-7-6.5h-54.5c0-15.3,0,55.5,0-150
			c0-11.5-9.4-21-21-21H48.7c-11.5,0-21,9.4-21,21c0,257.9,0,307,0,307.9c0,11.5,9.4,21,21,21H332c15.3,15.1,33.6,25.2,51.5,28.7
			c0.4,0.1,0.9,0.1,1.4,0.1s0.9,0,1.4-0.1c43-8.5,88.6-53.7,88.6-120.5v-54.2C474.7,262.1,473.2,259.6,470.7,258.5z M41.7,81.7
			c0-3.9,3.1-7,7-7H371c3.9,0,7,3.1,7,7v42.4H41.7V81.7z M41.5,389.8V138.1h336.3v93.5h-54.6c-3.8,0-6.7,2.8-7,6.6
			c0,0.1-1.2,12.8-17.3,20.2c-2.5,1.2-4.1,3.6-4.1,6.3V319c0,31.2,10,57.6,25,77.8H48.5C44.8,396.8,41.5,393.7,41.5,389.8z
			 M460.8,319c0,56.4-38.4,98.2-76,106.5c-37.7-8.3-76-50.1-76-106.5v-49.9c12.8-7.1,18-17,20.1-23.4h111.9
			c2.1,6.5,7.2,16.3,20.1,23.4V319H460.8z"/>
	</g>
	<g>
		<path class="st0" d="M384.8,292.2c-15.4,0-27.9,12.6-27.9,27.9c0,12.9,8.9,23.8,21,26.9v20.8c0,3.9,3.1,7,7,7s7-3.1,7-7v-20.8
			c12-3.1,21-14,21-26.9C412.8,304.7,400.2,292.2,384.8,292.2z M384.8,334.2c-7.8,0-14-6.2-14-14s6.2-14,14-14c7.8,0,14,6.2,14,14
			C398.8,327.8,392.6,334.2,384.8,334.2z"/>
	</g>
	<g>
		<path class="st0" d="M141.4,168.8H76.7c-3.9,0-7,3.1-7,7v64.7c0,3.9,3.1,7,7,7h64.7c3.9,0,7-3.1,7-7v-64.7
			C148.4,171.9,145.3,168.8,141.4,168.8z M134.4,233.4H83.7v-50.7h50.7V233.4z"/>
	</g>
	<g>
		<path class="st0" d="M141.4,287.6H76.7c-3.9,0-7,3.1-7,7v64.7c0,3.9,3.1,7,7,7h64.7c3.9,0,7-3.1,7-7v-64.7
			C148.4,290.7,145.3,287.6,141.4,287.6z M134.4,352.1H83.7v-50.7h50.7V352.1z"/>
	</g>
	<g>
		<path class="st0" d="M286.1,176.7H179.7c-3.9,0-7,3.1-7,7s3.1,7,7,7h106.4c3.9,0,7-3.1,7-7S290,176.7,286.1,176.7z"/>
	</g>
	<g>
		<path class="st0" d="M286.1,225.6H179.7c-3.9,0-7,3.1-7,7s3.1,7,7,7h106.4c3.9,0,7-3.1,7-7C293.1,228.7,290,225.6,286.1,225.6z"/>
	</g>
	<g>
		<path class="st0" d="M258.1,295.5h-78.4c-3.9,0-7,3.1-7,7c0,3.9,3.1,7,7,7h78.4c3.9,0,7-3.1,7-7
			C265.1,298.6,262,295.5,258.1,295.5z"/>
	</g>
	<g>
		<path class="st0" d="M223.2,344.4h-43.5c-3.9,0-7,3.1-7,7c0,3.9,3.1,7,7,7h43.5c3.9,0,7-3.1,7-7
			C230.2,347.5,227.1,344.4,223.2,344.4z"/>
	</g>
</g>
</svg>
